<svg width="45" height="45" xmlns="http://www.w3.org/2000/svg">
 <metadata id="metadata8">image/svg+xml</metadata>
 <defs>
  <clipPath clipPathUnits="userSpaceOnUse" id="clipPath16">
   <path d="m0,36l36,0l0,-36l-36,0l0,36z" id="path18"/>
  </clipPath>
 </defs>
 <g>
  <title>background</title>
  <rect fill="none" id="canvas_background" height="602" width="802" y="-1" x="-1"/>
 </g>
 <g>
  <title>Layer 1</title>
  <g id="g10" transform="matrix(1.25, 0, 0, -1.25, 0, 45)">
   <g id="g12">
    <g id="g14" clip-path="url(#clipPath16)">
     <g id="g20">
      <path fill="#46673D" fill-rule="nonzero" d="m21.5332,17.9976l12.234,12.234c0.977,0.976 0.977,2.559 0,3.535c-0.976,0.977 -2.558,0.977 -3.535,0l-12.234,-12.234l-12.235,12.234c-0.975,0.977 -2.559,0.977 -3.535,0c-0.976,-0.976 -0.976,-2.559 0,-3.535l12.235,-12.234l-12.262,-12.262c-0.977,-0.977 -0.977,-2.559 0,-3.535c0.488,-0.489 1.128,-0.733 1.768,-0.733c0.639,0 1.279,0.244 1.767,0.733l12.262,12.262l12.234,-12.234c0.489,-0.488 1.128,-0.733 1.768,-0.733c0.639,0 1.279,0.245 1.767,0.733c0.977,0.976 0.977,2.558 0,3.535l-12.234,12.234z" id="path22"/>
     </g>
    </g>
   </g>
  </g>
 </g>
</svg>